# Blender v3.2.0 OBJ File: 'GunPuk.blend'
# www.blender.org
v -0.500000 -0.500000 -1.812519
v 0.500000 -0.500000 -1.812519
v -0.500000 0.500000 -1.812519
v 0.500000 0.500000 -1.812519
v 0.500000 0.500000 -4.774984
v -0.166667 0.833333 -1.812519
v 0.166666 0.833333 -1.812519
v -0.166667 1.166667 -1.812519
v 0.166666 1.166667 -1.812519
v 0.500000 -0.500000 -4.774984
v -0.500000 -0.500000 -4.774984
v -0.166666 1.166667 -4.312519
v 0.166667 1.166667 -4.312519
v -1.166667 -0.166667 -1.812519
v -0.833333 -0.166667 -1.812519
v -1.166667 0.166667 -1.812519
v -0.833333 0.166667 -1.812519
v -0.166667 -1.166667 -1.812519
v 0.166666 -1.166667 -1.812519
v -0.166667 -0.833333 -1.812519
v 0.166666 -0.833333 -1.812519
v -0.500000 0.500000 -4.774984
v 0.833333 -0.166667 -1.812519
v 1.166667 -0.166667 -1.812519
v 0.833333 0.166667 -1.812519
v 1.166667 0.166667 -1.812519
v 1.166667 -0.166667 -4.312519
v 1.166667 0.166667 -4.312519
v -0.166666 -1.166667 -4.312519
v 0.166667 -1.166667 -4.312519
v -1.166667 -0.166667 -4.312519
v -1.166667 0.166667 -4.312519
v 0.166667 0.833333 -3.979189
v -0.166666 0.833333 -3.979189
v -0.166666 0.500000 -4.312519
v 0.166667 0.500000 -4.312519
v 0.166667 0.500000 -3.979189
v -0.166666 0.500000 -3.979189
v -0.833333 0.166667 -3.979186
v -0.833333 -0.166667 -3.979186
v 0.833334 0.166667 -3.979185
v 0.833334 -0.166667 -3.979185
v 0.166667 -0.833333 -3.979186
v -0.166666 -0.833333 -3.979186
v 0.500000 0.166667 -4.312519
v 0.500000 -0.166667 -4.312519
v 0.500000 0.166667 -3.979185
v 0.500000 -0.166667 -3.979185
v -0.500000 0.166667 -4.312519
v -0.500000 -0.166667 -4.312519
v -0.500000 0.166667 -3.979186
v -0.500000 -0.166667 -3.979186
v -0.166666 -0.500000 -4.312519
v 0.166667 -0.500000 -4.312519
v -0.166666 -0.500000 -3.979186
v 0.166667 -0.500000 -3.979186
v 1.499998 1.230000 6.335495
v 1.229999 1.500000 6.335495
v 1.230000 1.500000 -1.812519
v 1.500000 1.230000 -1.812519
v 1.229999 -1.500000 6.335495
v 1.499998 -1.230000 6.335495
v 1.500000 -1.230000 -1.812519
v 1.230000 -1.500000 -1.812519
v -1.500001 -1.230000 6.335495
v -1.230001 -1.500000 6.335495
v -1.230000 -1.500000 -1.812519
v -1.500000 -1.230000 -1.812519
v -1.230001 1.500000 6.335495
v -1.500001 1.230000 6.335495
v -1.500000 1.230000 -1.812519
v -1.230000 1.500000 -1.812519
v 0.275001 0.500000 -6.514357
v 0.500001 0.275000 -6.514357
v 0.500000 0.275000 -4.774984
v 0.275000 0.500000 -4.774984
v -0.274999 -0.500000 -6.514357
v -0.499999 -0.275000 -6.514357
v 0.500001 -0.275000 -6.514357
v 0.275001 -0.500000 -6.514357
v -0.499999 0.275000 -6.514357
v -0.274999 0.500000 -6.514357
v 0.275000 -0.500000 -4.774984
v 0.500000 -0.275000 -4.774984
v -0.275000 0.500000 -4.774984
v -0.500000 0.275000 -4.774984
v -0.500000 -0.275000 -4.774984
v -0.275000 -0.500000 -4.774984
vt 0.447660 1.000003
vt 0.234375 0.978909
vt 0.255469 0.765628
vt 1.000000 0.573599
vt 0.468754 0.413208
vt 1.000000 0.413208
vt 0.078866 0.464128
vt 0.022892 0.287109
vt 0.078866 0.287109
vt 0.180637 0.464128
vt 0.124663 0.287109
vt 0.180637 0.287109
vt 0.070335 0.263663
vt 0.093782 0.111256
vt 0.093782 0.287109
vt 0.191406 0.187244
vt 0.216372 -0.000003
vt 0.216372 0.187244
vt 0.241338 0.187244
vt 0.266305 -0.000003
vt 0.266305 0.187244
vt 0.216372 0.237176
vt 0.266305 0.262143
vt 0.216372 0.262143
vt 0.070335 0.111256
vt 0.093782 0.087810
vt 0.046888 0.087810
vt 0.266305 0.287109
vt 0.216372 0.262143
vt 0.266305 0.262143
vt -0.000007 0.978915
vt 0.021088 0.765621
vt 0.234383 0.786716
vt 0.118188 0.111257
vt 0.093782 0.087810
vt 0.142594 0.087810
vt 0.118188 0.263662
vt 0.093782 0.111257
vt 0.093782 0.287109
vt 0.191406 0.021961
vt 0.048641 -0.000003
vt 0.191406 -0.000003
vt 0.216372 0.237176
vt 0.191406 0.187244
vt 0.216372 0.187244
vt 0.291271 0.187244
vt 0.266305 -0.000003
vt 0.266305 0.187244
vt 0.023440 0.111256
vt 0.046888 0.263662
vt 0.046888 0.087809
vt 0.241338 0.187244
vt 0.216372 -0.000003
vt 0.216372 0.187244
vt 0.023440 0.263662
vt 0.046888 0.287109
vt -0.000007 0.287109
vt 0.191406 0.021961
vt 0.048909 0.043883
vt 0.191406 0.043883
vt 0.167000 0.111257
vt 0.142594 0.263662
vt 0.142594 0.087810
vt 0.167000 0.263662
vt 0.142594 0.287109
vt 0.191406 0.287109
vt 0.191406 0.287109
vt 0.216372 0.237176
vt 0.216372 0.287109
vt 0.048644 0.087810
vt 0.191406 0.065846
vt 0.191406 0.087810
vt 0.026678 0.087809
vt 0.048641 0.065846
vt 0.048641 0.087809
vt 0.191406 0.043883
vt 0.048644 0.065846
vt 0.191406 0.065846
vt 0.048641 0.021961
vt 0.026678 -0.000002
vt 0.026678 0.021920
vt 0.048641 0.043883
vt 0.026678 0.043883
vt 0.048641 0.043883
vt 0.026678 0.065846
vt 0.026678 0.043883
vt 1.000000 0.964795
vt 0.468754 1.000003
vt 0.468754 0.964795
vt 1.000000 0.378000
vt 1.000000 0.378000
vt 0.468754 0.217610
vt 1.000000 0.217610
vt 0.468754 0.608806
vt 0.468754 0.573599
vt 0.468754 0.804405
vt 1.000000 0.804405
vt 1.000000 0.769197
vt 1.000000 0.608806
vt 0.101765 0.765621
vt -0.000007 0.464128
vt 0.101765 0.464128
vt 0.407079 0.765621
vt 0.305307 0.464127
vt 0.407079 0.464127
vt 0.305307 0.765621
vt 0.203536 0.464127
vt 0.203536 0.765621
vt 0.384180 0.464127
vt 0.328206 0.287109
vt 0.384180 0.287109
vt 0.095703 0.843751
vt 0.156253 0.861330
vt 0.138674 0.921881
vt 0.078123 0.904301
vt 0.095703 0.921881
vt 0.078123 0.921881
vt 0.022892 0.464128
vt -0.000007 0.287109
vt 0.124663 0.464128
vt 0.226435 0.464128
vt 0.226435 0.287109
vt 0.328206 0.464127
vt 0.282409 0.287109
vt 0.282409 0.464127
vt 0.156253 0.921881
vt 0.138674 0.921881
vt 0.156253 0.904301
vt 0.078123 0.861330
vt 0.078123 0.843751
vt 0.095703 0.843751
vt 0.138674 0.843751
vt 0.156253 0.843751
vt 0.156253 0.861330
vt 0.447660 0.765628
vt 0.468754 0.786722
vt 0.468754 0.978909
vt 0.255469 1.000003
vt 0.234375 0.786722
vt 0.070335 0.111256
vt 0.046888 0.287109
vt 0.046888 0.263663
vt 0.191406 -0.000003
vt 0.241338 -0.000003
vt 0.266305 0.237176
vt 0.046888 0.263663
vt 0.070335 0.263663
vt 0.093782 0.111256
vt 0.216372 0.287109
vt 0.234383 0.978915
vt 0.213288 1.000010
vt 0.021088 1.000010
vt -0.000007 0.786716
vt 0.213288 0.765621
vt 0.142594 0.263662
vt 0.118188 0.263662
vt 0.093782 0.111257
vt 0.118188 0.111257
vt 0.142594 0.287109
vt 0.142594 0.263662
vt 0.191406 0.237176
vt 0.291271 -0.000003
vt 0.023440 0.263662
vt -0.000007 0.087809
vt -0.000007 0.111256
vt 0.241338 -0.000003
vt -0.000007 0.111256
vt 0.023440 0.111256
vt 0.046888 0.263662
vt 0.048909 0.021961
vt 0.167000 0.263662
vt 0.191406 0.087810
vt 0.191406 0.111257
vt 0.191406 0.111257
vt 0.167000 0.111257
vt 0.142594 0.263662
vt 0.191406 0.237176
vt 0.048644 0.065846
vt 0.026678 0.065846
vt 0.026678 0.021961
vt 0.048641 0.021920
vt 0.048641 0.065846
vt 1.000000 1.000003
vt 0.468754 0.378000
vt 0.468754 0.378000
vt 0.468754 0.769197
vt -0.000007 0.765621
vt 0.138674 0.843751
vt 0.156253 0.904301
vt 0.095703 0.921881
vt 0.078123 0.904301
vt 0.078123 0.861330
vt -0.000007 0.464128
vn 0.0000 0.0000 1.0000
vn 0.0000 -1.0000 0.0000
vn 0.0000 1.0000 0.0000
vn -1.0000 0.0000 -0.0000
vn 0.0000 0.0000 -1.0000
vn 1.0000 0.0000 0.0000
vn 0.7071 0.7071 0.0000
vn 0.7071 -0.7071 0.0000
vn -0.7071 -0.7071 -0.0000
vn -0.7071 0.7071 -0.0000
s off
f 58/1/1 70/2/1 66/3/1
f 66/4/2 64/5/2 61/6/2
f 85/7/3 73/8/3 82/9/3
f 87/10/4 81/11/4 78/12/4
f 34/13/4 8/14/4 12/15/4
f 9/16/3 12/17/3 8/18/3
f 16/19/4 31/20/4 14/21/4
f 27/22/5 45/23/5 28/24/5
f 33/25/6 36/26/6 13/27/6
f 32/28/5 50/29/5 31/30/5
f 60/31/5 64/32/5 68/33/5
f 42/34/2 46/35/2 27/36/2
f 41/37/3 26/38/3 28/39/3
f 25/40/4 42/41/4 23/42/4
f 53/43/5 30/44/5 29/45/5
f 24/46/6 28/47/6 26/48/6
f 43/49/6 19/50/6 30/51/6
f 18/52/2 30/53/2 19/54/2
f 44/55/4 53/56/4 29/57/4
f 15/58/6 39/59/6 17/60/6
f 40/61/2 14/62/2 31/63/2
f 39/64/3 49/65/3 32/66/3
f 13/67/5 35/68/5 12/69/5
f 34/70/2 7/71/2 6/72/2
f 34/73/1 37/74/1 33/75/1
f 21/76/3 44/77/3 20/78/3
f 41/79/1 48/80/1 42/41/1
f 40/81/1 51/82/1 39/83/1
f 43/84/1 55/85/1 44/86/1
f 58/87/7 60/88/7 59/89/7
f 64/5/8 62/90/8 61/6/8
f 60/91/6 62/92/6 63/93/6
f 66/4/9 68/94/9 67/95/9
f 58/87/3 72/96/3 69/97/3
f 72/96/10 70/98/10 69/97/10
f 70/98/4 68/94/4 65/99/4
f 3/100/3 5/101/3 22/102/3
f 4/103/6 10/104/6 5/105/6
f 2/106/2 11/107/2 10/104/2
f 1/108/4 22/102/4 11/107/4
f 75/109/6 79/110/6 74/111/6
f 80/112/5 78/113/5 82/114/5
f 75/115/5 76/116/5 5/117/5
f 76/118/7 74/119/7 73/8/7
f 86/120/10 82/9/10 81/11/10
f 88/121/9 78/12/9 77/122/9
f 84/123/8 80/124/8 79/110/8
f 83/125/2 77/122/2 80/124/2
f 22/126/5 85/127/5 86/128/5
f 84/129/5 10/130/5 83/131/5
f 88/132/5 11/133/5 87/134/5
f 66/3/1 61/135/1 62/136/1
f 62/136/1 57/137/1 58/1/1
f 58/1/1 69/138/1 70/2/1
f 70/2/1 65/139/1 66/3/1
f 66/3/1 62/136/1 58/1/1
f 66/4/2 67/95/2 64/5/2
f 85/7/3 76/118/3 73/8/3
f 87/10/4 86/120/4 81/11/4
f 34/13/4 6/140/4 8/14/4
f 12/15/4 35/141/4 34/13/4
f 35/141/4 38/142/4 34/13/4
f 9/16/3 13/143/3 12/17/3
f 16/19/4 32/144/4 31/20/4
f 27/22/5 46/145/5 45/23/5
f 13/27/6 9/146/6 33/25/6
f 9/146/6 7/147/6 33/25/6
f 33/25/6 37/148/6 36/26/6
f 32/28/5 49/149/5 50/29/5
f 68/33/5 71/150/5 72/151/5
f 72/151/5 59/152/5 60/31/5
f 60/31/5 63/153/5 64/32/5
f 64/32/5 67/154/5 68/33/5
f 68/33/5 72/151/5 60/31/5
f 27/36/2 24/155/2 42/34/2
f 24/155/2 23/156/2 42/34/2
f 42/34/2 48/157/2 46/35/2
f 41/37/3 25/158/3 26/38/3
f 28/39/3 45/159/3 41/37/3
f 45/159/3 47/160/3 41/37/3
f 25/40/4 41/79/4 42/41/4
f 53/43/5 54/161/5 30/44/5
f 24/46/6 27/162/6 28/47/6
f 43/49/6 21/163/6 19/50/6
f 30/51/6 54/164/6 43/49/6
f 54/164/6 56/165/6 43/49/6
f 18/52/2 29/166/2 30/53/2
f 29/57/4 18/167/4 44/55/4
f 18/167/4 20/168/4 44/55/4
f 44/55/4 55/169/4 53/56/4
f 15/58/6 40/170/6 39/59/6
f 40/61/2 15/171/2 14/62/2
f 31/63/2 50/172/2 40/61/2
f 50/172/2 52/173/2 40/61/2
f 32/66/3 16/174/3 39/64/3
f 16/174/3 17/175/3 39/64/3
f 39/64/3 51/176/3 49/65/3
f 13/67/5 36/177/5 35/68/5
f 34/70/2 33/178/2 7/71/2
f 34/73/1 38/179/1 37/74/1
f 21/76/3 43/84/3 44/77/3
f 41/79/1 47/180/1 48/80/1
f 40/81/1 52/181/1 51/82/1
f 43/84/1 56/182/1 55/85/1
f 58/87/7 57/183/7 60/88/7
f 64/5/8 63/184/8 62/90/8
f 60/91/6 57/185/6 62/92/6
f 66/4/9 65/99/9 68/94/9
f 58/87/3 59/89/3 72/96/3
f 72/96/10 71/186/10 70/98/10
f 70/98/4 71/186/4 68/94/4
f 3/100/3 4/187/3 5/101/3
f 4/103/6 2/106/6 10/104/6
f 2/106/2 1/108/2 11/107/2
f 1/108/4 3/100/4 22/102/4
f 75/109/6 84/123/6 79/110/6
f 80/112/5 77/188/5 78/113/5
f 78/113/5 81/189/5 82/114/5
f 82/114/5 73/190/5 74/191/5
f 74/191/5 79/192/5 82/114/5
f 79/192/5 80/112/5 82/114/5
f 76/118/7 75/193/7 74/119/7
f 86/120/10 85/7/10 82/9/10
f 88/121/9 87/10/9 78/12/9
f 84/123/8 83/125/8 80/124/8
f 83/125/2 88/121/2 77/122/2
