# Blender v3.1.2 OBJ File: 'Close map.blend'
# www.blender.org
v -20.000000 0.000000 20.000000
v 20.000000 0.000000 20.000000
v -20.000000 0.000000 -20.000000
v 20.000000 0.000000 -20.000000
v -20.000000 0.000000 -12.000000
v -20.000000 0.000000 -4.000000
v -20.000000 0.000000 4.000000
v -20.000000 0.000000 12.000000
v 20.000000 0.000000 12.000000
v 20.000000 0.000000 4.000000
v 20.000000 0.000000 -4.000000
v 20.000000 0.000000 -12.000000
v -12.000000 0.000000 12.000000
v -12.000000 0.000000 4.000000
v -12.000000 0.000000 -4.000000
v -12.000000 0.000000 -12.000000
v -4.000000 0.000000 12.000000
v -4.000000 0.000000 4.000000
v -4.000000 0.000000 -4.000000
v -4.000000 0.000000 -12.000000
v 4.000000 0.000000 12.000000
v 4.000000 0.000000 4.000000
v 4.000000 0.000000 -4.000000
v 4.000000 0.000000 -12.000000
v 12.000000 0.000000 12.000000
v 12.000000 0.000000 4.000000
v 12.000000 0.000000 -4.000000
v 12.000000 0.000000 -12.000000
v -12.000000 20.000000 -4.000000
v -12.000000 20.000000 -12.000000
v -4.000000 20.000000 -4.000000
v -4.000000 20.000000 -12.000000
v 4.000000 20.000000 -4.000000
v 4.000000 20.000000 -12.000000
v 12.000000 20.000000 -4.000000
v 12.000000 20.000000 -12.000000
v -12.000000 20.000000 12.000000
v -12.000000 20.000000 4.000000
v -4.000000 20.000000 12.000000
v -4.000000 20.000000 4.000000
v 4.000000 20.000000 12.000000
v 4.000000 20.000000 4.000000
v 12.000000 20.000000 12.000000
v 12.000000 20.000000 4.000000
v -19.999998 0.000000 -19.999998
v 19.999998 0.000000 -19.999998
v -19.999998 20.000000 -19.999998
v 19.999998 20.000000 -19.999998
v 19.999998 0.000000 19.999998
v -19.999998 0.000000 20.000000
v 19.999998 20.000000 19.999996
v -19.999998 20.000000 20.000000
v 19.999998 20.000000 19.999998
v 19.999998 20.000000 -19.999998
v 20.000000 0.000000 19.999998
v 19.999998 0.000000 -19.999998
v -19.999998 20.000000 -19.999998
v -19.999998 20.000000 19.999998
v -19.999998 0.000000 -19.999998
v -20.000000 0.000000 19.999998
vt 0.300000 0.900000
vt 0.400000 0.900000
vt 0.500000 1.000000
vt 0.100000 0.600000
vt 0.000000 0.700000
vt 0.000000 0.600000
vt 0.300000 0.700000
vt 0.400000 0.800000
vt 0.300000 0.800000
vt 0.100000 0.800000
vt 0.000000 0.900000
vt 0.000000 0.800000
vt 0.812500 0.750000
vt 0.750000 1.000000
vt 0.750001 0.750000
vt 0.625000 0.750000
vt 0.562500 1.000000
vt 0.562500 0.750000
vt 0.300000 0.600000
vt 0.200000 0.700000
vt 0.200000 0.600000
vt 0.000000 0.500000
vt 0.200000 0.900000
vt 0.200000 0.800000
vt 0.750000 0.500000
vt 0.687500 0.750000
vt 0.687501 0.500000
vt 0.937500 0.500000
vt 0.875000 0.750000
vt 0.875001 0.500000
vt 0.500000 0.600000
vt 0.400000 0.700000
vt 0.400000 0.600000
vt 0.500000 0.800000
vt 0.687500 0.750000
vt 0.625000 1.000000
vt 0.750000 0.750000
vt 0.687500 1.000000
vt 0.500000 1.000000
vt 0.500000 0.750000
vt 1.000000 0.500000
vt 0.937500 0.750000
vt 0.812500 0.500000
vt 0.750000 0.750000
vt 0.750001 0.500000
vt 0.812500 0.750000
vt 0.875001 0.750000
vt 0.812500 1.000000
vt 0.937500 0.750000
vt 0.875000 1.000000
vt 1.000000 0.750000
vt 0.937500 1.000000
vt 0.562500 0.500000
vt 0.500000 0.750000
vt 0.500001 0.500000
vt 0.625001 0.500000
vt 0.562500 0.750000
vt 0.625000 0.750000
vt 0.500000 0.250000
vt 0.000000 0.500000
vt 0.000000 0.250000
vt 0.500000 0.000000
vt 0.000000 0.250000
vt 0.000000 0.000000
vt 0.500000 0.250000
vt 1.000000 0.000000
vt 1.000000 0.250000
vt 0.500000 0.500000
vt 1.000000 0.250000
vt 1.000000 0.500000
vt 0.100000 0.900000
vt 0.000000 1.000000
vt 0.500000 0.900000
vt 0.100000 0.700000
vt 0.500000 0.700000
vt 0.500000 0.500000
vt 0.749999 0.750000
vt 0.750000 1.000000
vt 1.000001 0.750000
vt 0.999999 1.000000
vt 0.500000 0.500000
vt 0.500000 0.250000
vt 0.500000 0.000000
vt 0.500000 0.250000
vn 0.0000 1.0000 0.0000
vn -1.0000 0.0000 0.0000
vn 0.0000 0.0000 1.0000
vn 1.0000 0.0000 0.0000
vn 0.0000 0.0000 -1.0000
s off
f 24/1/1 28/2/1 4/3/1
f 13/4/1 7/5/1 8/6/1
f 22/7/1 27/8/1 23/9/1
f 15/10/1 5/11/1 6/12/1
f 13/13/2 38/14/2 14/15/2
f 15/16/2 30/17/2 16/18/2
f 21/19/1 18/20/1 17/21/1
f 17/21/1 13/4/1 1/22/1
f 23/9/1 20/23/1 19/24/1
f 21/25/2 42/26/2 22/27/2
f 23/28/2 34/29/2 24/30/2
f 9/31/1 26/32/1 25/33/1
f 11/34/1 28/2/1 27/8/1
f 19/35/3 29/36/3 15/16/3
f 20/37/4 31/38/4 19/35/4
f 16/18/5 32/39/5 20/40/5
f 27/41/3 33/42/3 23/28/3
f 28/43/4 35/44/4 27/45/4
f 24/30/5 36/46/5 28/43/5
f 17/47/3 37/48/3 13/13/3
f 18/49/4 39/50/4 17/47/4
f 14/51/5 40/52/5 18/49/5
f 25/53/3 41/54/3 21/55/3
f 26/56/4 43/57/4 25/53/4
f 22/27/5 44/58/5 26/56/5
f 46/59/3 47/60/3 45/61/3
f 50/62/5 51/63/5 49/64/5
f 54/65/2 55/66/2 53/67/2
f 58/68/4 59/69/4 57/70/4
f 16/71/1 20/23/1 3/72/1
f 20/23/1 24/1/1 4/3/1
f 28/2/1 12/73/1 4/3/1
f 5/11/1 16/71/1 3/72/1
f 20/23/1 4/3/1 3/72/1
f 13/4/1 14/74/1 7/5/1
f 7/5/1 14/74/1 6/12/1
f 14/74/1 18/20/1 15/10/1
f 6/12/1 14/74/1 15/10/1
f 22/7/1 26/32/1 27/8/1
f 26/32/1 10/75/1 11/34/1
f 26/32/1 11/34/1 27/8/1
f 18/20/1 22/7/1 19/24/1
f 15/10/1 18/20/1 19/24/1
f 23/9/1 19/24/1 22/7/1
f 15/10/1 16/71/1 5/11/1
f 13/13/2 37/48/2 38/14/2
f 15/16/2 29/36/2 30/17/2
f 21/19/1 22/7/1 18/20/1
f 1/22/1 2/76/1 21/19/1
f 2/76/1 9/31/1 25/33/1
f 25/33/1 21/19/1 2/76/1
f 21/19/1 17/21/1 1/22/1
f 13/4/1 8/6/1 1/22/1
f 23/9/1 24/1/1 20/23/1
f 21/25/2 41/77/2 42/26/2
f 23/28/2 33/42/2 34/29/2
f 9/31/1 10/75/1 26/32/1
f 11/34/1 12/73/1 28/2/1
f 19/35/3 31/38/3 29/36/3
f 20/37/4 32/78/4 31/38/4
f 16/18/5 30/17/5 32/39/5
f 27/41/3 35/79/3 33/42/3
f 28/43/4 36/46/4 35/44/4
f 24/30/5 34/29/5 36/46/5
f 17/47/3 39/50/3 37/48/3
f 18/49/4 40/52/4 39/50/4
f 14/51/5 38/80/5 40/52/5
f 25/53/3 43/57/3 41/54/3
f 26/56/4 44/58/4 43/57/4
f 22/27/5 42/26/5 44/58/5
f 46/59/3 48/81/3 47/60/3
f 50/62/5 52/82/5 51/63/5
f 54/65/2 56/83/2 55/66/2
f 58/68/4 60/84/4 59/69/4
