# Blender v3.2.0 OBJ File: 'Wooden box.blend'
# www.blender.org
v 0.500000 0.400000 -0.400000
v 0.500000 0.400000 0.400000
v 0.500000 -0.400000 0.400000
v 0.500000 -0.400000 -0.400000
v 0.480000 0.400000 -0.400000
v 0.480000 0.400000 0.400000
v 0.480000 -0.400000 0.400000
v 0.480000 -0.400000 -0.400000
v -0.500000 -0.500000 0.500000
v -0.500000 0.500000 -0.500000
v -0.500000 0.400000 -0.400000
v -0.500000 0.400000 0.400000
v -0.500000 -0.400000 0.400000
v -0.500000 -0.400000 -0.400000
v -0.480000 0.400000 -0.400000
v -0.480000 0.400000 0.400000
v -0.480000 -0.400000 0.400000
v -0.480000 -0.400000 -0.400000
v 0.500000 0.500000 0.500000
v 0.400000 0.500000 -0.400000
v 0.400000 0.500000 0.400000
v -0.400000 0.500000 0.400000
v -0.400000 0.500000 -0.400000
v 0.400000 0.480000 -0.400000
v 0.400000 0.480000 0.400000
v -0.400000 0.480000 0.400000
v -0.400000 0.480000 -0.400000
v 0.500000 -0.500000 0.500000
v 0.500000 -0.500000 -0.500000
v -0.400000 -0.500000 -0.400000
v -0.400000 -0.500000 0.400000
v 0.400000 -0.500000 0.400000
v 0.400000 -0.500000 -0.400000
v -0.400000 -0.480000 -0.400000
v -0.400000 -0.480000 0.400000
v 0.400000 -0.480000 0.400000
v 0.400000 -0.480000 -0.400000
v -0.500000 -0.500000 -0.500000
v 0.500000 0.500000 -0.500000
v 0.400000 0.400000 -0.500000
v -0.400000 0.400000 -0.500000
v -0.400000 -0.400000 -0.500000
v 0.400000 -0.400000 -0.500000
v 0.400000 0.400000 -0.480000
v -0.400000 0.400000 -0.480000
v -0.400000 -0.400000 -0.480000
v 0.400000 -0.400000 -0.480000
v -0.500000 0.500000 0.500000
v -0.400000 0.400000 0.500000
v 0.400000 0.400000 0.500000
v 0.400000 -0.400000 0.500000
v -0.400000 -0.400000 0.500000
v -0.400000 0.400000 0.480000
v 0.400000 0.400000 0.480000
v 0.400000 -0.400000 0.480000
v -0.400000 -0.400000 0.480000
vt 0.937500 0.000000
vt 0.000000 0.031250
vt 0.000000 0.000000
vt 0.093752 0.906252
vt 0.937502 1.000002
vt 0.000002 1.000003
vt 0.093752 0.156249
vt 0.000002 0.062499
vt 0.843752 0.156249
vt 0.937501 0.062498
vt 0.843752 0.906252
vt 0.093752 0.156249
vt 0.843752 0.906252
vt 0.093752 0.906252
vt 0.937500 0.031250
vt 0.000000 0.062500
vt 0.000000 0.031250
vt 0.968750 1.000000
vt 0.937504 0.062501
vt 0.968750 0.062500
vt 0.968750 0.062500
vt 1.000000 1.000000
vt 0.968750 1.000000
vt 0.000000 0.031250
vt 0.937500 0.000000
vt 0.000000 0.000000
vt 0.093752 0.906252
vt 0.937502 1.000002
vt 0.843752 0.906252
vt 0.093752 0.156249
vt 0.000002 1.000003
vt 0.937501 0.062498
vt 0.843752 0.156249
vt 0.843752 0.906252
vt 0.093752 0.156249
vt 0.093752 0.906252
vt 0.000000 0.062500
vt 0.937500 0.031250
vt 0.000000 0.031250
vt 0.937504 0.062501
vt 0.968750 1.000000
vt 0.968750 0.062500
vt 1.000000 1.000000
vt 0.968750 0.062500
vt 0.968750 1.000000
vt 0.000000 0.031250
vt 0.937500 0.000000
vt 0.000000 0.000000
vt 0.843752 0.906252
vt 0.093752 0.906252
vt 0.000002 0.062499
vt 0.093752 0.156249
vt 0.937501 0.062498
vt 0.843752 0.156249
vt 0.843752 0.906252
vt 0.093752 0.156249
vt 0.093752 0.906252
vt 0.000000 0.062500
vt 0.937500 0.031250
vt 0.000000 0.031250
vt 0.937504 0.062501
vt 0.968750 1.000000
vt 0.968750 0.062500
vt 0.968750 1.000000
vt 1.000000 0.062500
vt 0.968750 0.062500
vt 0.000000 0.031250
vt 0.937500 0.000000
vt 0.000000 0.000000
vt 0.000002 1.000003
vt 0.843752 0.906252
vt 0.093752 0.906252
vt 0.093752 0.156249
vt 0.843752 0.156249
vt 0.937502 1.000002
vt 0.843752 0.906252
vt 0.093752 0.156249
vt 0.093752 0.906252
vt 0.000000 0.062500
vt 0.937500 0.031250
vt 0.000000 0.031250
vt 0.937504 0.062501
vt 0.968750 1.000000
vt 0.968750 0.062500
vt 1.000000 1.000000
vt 0.968750 0.062500
vt 0.968750 1.000000
vt 0.000000 0.031250
vt 0.937500 0.000000
vt 0.000000 0.000000
vt 0.000002 1.000003
vt 0.843752 0.906252
vt 0.093752 0.906252
vt 0.000002 0.062499
vt 0.093752 0.156249
vt 0.843752 0.156249
vt 0.843752 0.906252
vt 0.093752 0.156249
vt 0.093752 0.906252
vt 0.000000 0.062500
vt 0.937500 0.031250
vt 0.000000 0.031250
vt 0.937504 0.062501
vt 0.968750 1.000000
vt 0.968750 0.062500
vt 1.000000 1.000000
vt 0.968750 0.062500
vt 0.968750 1.000000
vt 0.000000 0.031250
vt 0.937500 0.000000
vt 0.000000 0.000000
vt 0.093752 0.906252
vt 0.937502 1.000002
vt 0.843752 0.906252
vt 0.093752 0.156249
vt 0.843752 0.156249
vt 0.937501 0.062498
vt 0.843752 0.906252
vt 0.093752 0.156249
vt 0.093752 0.906252
vt 0.000000 0.062500
vt 0.937500 0.031250
vt 0.000000 0.031250
vt 0.937504 0.062501
vt 0.968750 1.000000
vt 0.968750 0.062500
vt 1.000000 1.000000
vt 0.968750 0.062500
vt 0.968750 1.000000
vt 0.937500 0.031250
vt 0.843752 0.156249
vt 0.937500 0.062500
vt 0.937504 1.000000
vt 1.000000 0.062500
vt 0.937500 0.031250
vt 0.000002 0.062499
vt 0.843752 0.156249
vt 0.937500 0.062500
vt 0.937504 1.000000
vt 1.000000 0.062500
vt 0.937500 0.031250
vt 0.843752 0.156249
vt 0.937500 0.062500
vt 0.937504 1.000000
vt 1.000000 1.000000
vt 0.937500 0.031250
vt 0.843752 0.156249
vt 0.937500 0.062500
vt 0.937504 1.000000
vt 1.000000 0.062500
vt 0.937500 0.031250
vt 0.843752 0.156249
vt 0.937500 0.062500
vt 0.937504 1.000000
vt 1.000000 0.062500
vt 0.937500 0.031250
vt 0.843752 0.156249
vt 0.937500 0.062500
vt 0.937504 1.000000
vt 1.000000 0.062500
vn 0.0000 1.0000 0.0000
vn 1.0000 0.0000 -0.0000
vn 0.0000 -1.0000 0.0000
vn 0.0000 0.0000 1.0000
vn 0.0000 0.0000 -1.0000
vn -1.0000 0.0000 0.0000
s off
f 4/1/1 7/2/1 3/3/1
f 2/4/2 39/5/2 19/6/2
f 3/7/2 19/6/2 28/8/2
f 4/9/2 28/8/2 29/10/2
f 1/11/2 29/10/2 39/5/2
f 7/12/2 5/13/2 6/14/2
f 2/15/3 5/16/3 1/17/3
f 1/18/4 8/19/4 4/20/4
f 3/21/5 6/22/5 2/23/5
f 17/24/1 14/25/1 13/26/1
f 12/27/6 10/28/6 11/29/6
f 13/30/6 48/31/6 12/27/6
f 38/32/6 13/30/6 14/33/6
f 10/28/6 14/33/6 11/29/6
f 15/34/6 17/35/6 16/36/6
f 15/37/3 12/38/3 11/39/3
f 18/40/4 11/41/4 14/42/4
f 16/43/5 13/44/5 12/45/5
f 26/46/2 23/47/2 22/48/2
f 19/6/1 20/49/1 21/50/1
f 48/51/1 21/50/1 22/52/1
f 10/53/1 22/52/1 23/54/1
f 39/5/1 23/54/1 20/49/1
f 24/55/1 26/56/1 25/57/1
f 24/58/6 21/59/6 20/60/6
f 27/61/4 20/62/4 23/63/4
f 21/64/5 26/65/5 22/66/5
f 36/67/6 33/68/6 32/69/6
f 9/70/3 30/71/3 31/72/3
f 32/73/3 9/70/3 31/72/3
f 29/10/3 32/73/3 33/74/3
f 38/75/3 33/74/3 30/71/3
f 34/76/3 36/77/3 35/78/3
f 34/79/2 31/80/2 30/81/2
f 37/82/4 30/83/4 33/84/4
f 35/85/5 32/86/5 31/87/5
f 46/88/1 43/89/1 42/90/1
f 10/91/5 40/92/5 41/93/5
f 38/94/5 41/93/5 42/95/5
f 29/10/5 42/95/5 43/96/5
f 39/5/5 43/96/5 40/92/5
f 44/97/5 46/98/5 45/99/5
f 44/100/3 41/101/3 40/102/3
f 47/103/6 40/104/6 43/105/6
f 45/106/2 42/107/2 41/108/2
f 55/109/1 52/110/1 51/111/1
f 50/112/4 48/113/4 49/114/4
f 51/115/4 19/6/4 50/112/4
f 52/116/4 28/8/4 51/115/4
f 49/114/4 9/117/4 52/116/4
f 53/118/4 55/119/4 54/120/4
f 53/121/3 50/122/3 49/123/3
f 56/124/2 49/125/2 52/126/2
f 54/127/6 51/128/6 50/129/6
f 4/1/1 8/130/1 7/2/1
f 2/4/2 1/11/2 39/5/2
f 3/7/2 2/4/2 19/6/2
f 4/9/2 3/7/2 28/8/2
f 1/11/2 4/9/2 29/10/2
f 7/12/2 8/131/2 5/13/2
f 2/15/3 6/132/3 5/16/3
f 1/18/4 5/133/4 8/19/4
f 3/21/5 7/134/5 6/22/5
f 17/24/1 18/135/1 14/25/1
f 12/27/6 48/31/6 10/28/6
f 13/30/6 9/136/6 48/31/6
f 38/32/6 9/136/6 13/30/6
f 10/28/6 38/32/6 14/33/6
f 15/34/6 18/137/6 17/35/6
f 15/37/3 16/138/3 12/38/3
f 18/40/4 15/139/4 11/41/4
f 16/43/5 17/140/5 13/44/5
f 26/46/2 27/141/2 23/47/2
f 19/6/1 39/5/1 20/49/1
f 48/51/1 19/6/1 21/50/1
f 10/53/1 48/51/1 22/52/1
f 39/5/1 10/53/1 23/54/1
f 24/55/1 27/142/1 26/56/1
f 24/58/6 25/143/6 21/59/6
f 27/61/4 24/144/4 20/62/4
f 21/64/5 25/145/5 26/65/5
f 36/67/6 37/146/6 33/68/6
f 9/70/3 38/75/3 30/71/3
f 32/73/3 28/8/3 9/70/3
f 29/10/3 28/8/3 32/73/3
f 38/75/3 29/10/3 33/74/3
f 34/76/3 37/147/3 36/77/3
f 34/79/2 35/148/2 31/80/2
f 37/82/4 34/149/4 30/83/4
f 35/85/5 36/150/5 32/86/5
f 46/88/1 47/151/1 43/89/1
f 10/91/5 39/5/5 40/92/5
f 38/94/5 10/91/5 41/93/5
f 29/10/5 38/94/5 42/95/5
f 39/5/5 29/10/5 43/96/5
f 44/97/5 47/152/5 46/98/5
f 44/100/3 45/153/3 41/101/3
f 47/103/6 44/154/6 40/104/6
f 45/106/2 46/155/2 42/107/2
f 55/109/1 56/156/1 52/110/1
f 50/112/4 19/6/4 48/113/4
f 51/115/4 28/8/4 19/6/4
f 52/116/4 9/117/4 28/8/4
f 49/114/4 48/113/4 9/117/4
f 53/118/4 56/157/4 55/119/4
f 53/121/3 54/158/3 50/122/3
f 56/124/2 53/159/2 49/125/2
f 54/127/6 55/160/6 51/128/6
